<svg width="20" height="20" viewBox="0 0 20 20" fill="none" xmlns="http://www.w3.org/2000/svg">
<path fill-rule="evenodd" clip-rule="evenodd" d="M5.79036 1.92676C4.22556 1.92676 2.95703 3.19528 2.95703 4.76009V7.59525C2.95703 8.05549 3.33013 8.42858 3.79036 8.42858C4.2506 8.42858 4.6237 8.05549 4.6237 7.59525V4.76009C4.6237 4.11576 5.14603 3.59342 5.79036 3.59342H13.1147C13.1589 3.59342 13.2013 3.61098 13.2326 3.64224L16.2415 6.65122C16.2728 6.68248 16.2904 6.72487 16.2904 6.76907V14.0934C16.2904 14.7378 15.768 15.2601 15.1237 15.2601H14.528V11.2083C14.528 10.1958 13.7072 9.375 12.6946 9.375H10.4583C9.9981 9.375 9.625 9.7481 9.625 10.2083C9.625 10.6686 9.9981 11.0417 10.4583 11.0417H12.6946C12.7867 11.0417 12.8613 11.1163 12.8613 11.2083V15.2961C12.5194 15.4 12.2705 15.7177 12.2705 16.0936C12.2705 16.5538 12.6436 16.9269 13.1039 16.9269H13.6946L13.7114 16.9268H15.1237C16.6885 16.9268 17.957 15.6582 17.957 14.0934V6.76907C17.957 6.28284 17.7639 5.81653 17.4201 5.47271L14.4111 2.46373C14.0673 2.11991 13.6009 1.92676 13.1147 1.92676H5.79036ZM7.41927 5.35254C6.95903 5.35254 6.58594 5.72564 6.58594 6.18587C6.58594 6.64611 6.95903 7.01921 7.41927 7.01921H10.3873C10.8475 7.01921 11.2206 6.64611 11.2206 6.18587C11.2206 5.72564 10.8475 5.35254 10.3873 5.35254H7.41927ZM3.70964 13.0209C3.70964 11.9278 4.59577 11.0417 5.68888 11.0417C6.78198 11.0417 7.66812 11.9278 7.66812 13.0209C7.66812 14.114 6.78198 15.0002 5.68888 15.0002C4.59577 15.0002 3.70964 14.114 3.70964 13.0209ZM5.68888 9.375C3.6753 9.375 2.04297 11.0073 2.04297 13.0209C2.04297 15.0345 3.6753 16.6668 5.68888 16.6668C6.3938 16.6668 7.052 16.4668 7.60979 16.1203L9.31849 17.829C9.64392 18.1545 10.1716 18.1545 10.497 17.829C10.8224 17.5036 10.8224 16.976 10.497 16.6505L8.7883 14.9418C9.13473 14.384 9.33479 13.7258 9.33479 13.0209C9.33479 11.0073 7.70246 9.375 5.68888 9.375Z" fill="#AEAEAE"/>
</svg>
