<svg width="24" height="22" viewBox="0 0 24 22" fill="none" xmlns="http://www.w3.org/2000/svg">
<g clip-path="url(#clip0_542_46540)">
<rect width="24" height="22" fill="white"/>
<path fill-rule="evenodd" clip-rule="evenodd" d="M11.9994 0.732422C12.4689 0.732422 12.8494 1.11298 12.8494 1.58242V3.49355C12.8494 3.963 12.4689 4.34355 11.9994 4.34355C11.53 4.34355 11.1494 3.963 11.1494 3.49355V1.58242C11.1494 1.11298 11.53 0.732422 11.9994 0.732422ZM12 6.18418C8.69524 6.18418 6.01621 8.86321 6.01621 12.168V19.5674H3.89199C3.42255 19.5674 3.04199 19.9479 3.04199 20.4174C3.04199 20.8868 3.42255 21.2674 3.89199 21.2674H20.1078C20.5773 21.2674 20.9578 20.8868 20.9578 20.4174C20.9578 19.9479 20.5773 19.5674 20.1078 19.5674H17.9838V12.168C17.9838 8.86321 15.3048 6.18418 12 6.18418ZM7.71621 12.168C7.71621 9.8021 9.63413 7.88418 12 7.88418C14.3659 7.88418 16.2838 9.8021 16.2838 12.168V19.567H7.71621V12.168ZM1.2377 11.3672C0.768253 11.3672 0.387695 11.7477 0.387695 12.2172C0.387695 12.6866 0.768253 13.0672 1.2377 13.0672H3.14883C3.61827 13.0672 3.99883 12.6866 3.99883 12.2172C3.99883 11.7477 3.61827 11.3672 3.14883 11.3672H1.2377ZM20.8515 11.3672C20.3821 11.3672 20.0015 11.7477 20.0015 12.2172C20.0015 12.6866 20.3821 13.0672 20.8515 13.0672H22.7627C23.2321 13.0672 23.6127 12.6866 23.6127 12.2172C23.6127 11.7477 23.2321 11.3672 22.7627 11.3672H20.8515ZM17.6581 6.55944C17.3262 6.22749 17.3262 5.6893 17.6581 5.35736L19.0095 4.00598C19.3415 3.67404 19.8797 3.67404 20.2116 4.00598C20.5435 4.33793 20.5435 4.87612 20.2116 5.20806L18.8602 6.55944C18.5283 6.89138 17.9901 6.89138 17.6581 6.55944ZM6.34264 5.35736C6.67459 5.6893 6.67459 6.22749 6.34264 6.55944C6.0107 6.89138 5.47251 6.89138 5.14056 6.55944L3.78919 5.20806C3.45724 4.87612 3.45724 4.33793 3.78919 4.00598C4.12113 3.67404 4.65932 3.67404 4.99127 4.00598L6.34264 5.35736Z" fill="#F06619"/>
<path d="M6.86621 12.168C6.86621 9.33266 9.16469 7.03418 12 7.03418C14.8353 7.03418 17.1338 9.33266 17.1338 12.168V20.417H6.86621V12.168Z" fill="#F06619" stroke="#F06619" stroke-width="1.7" stroke-linecap="round" stroke-linejoin="round"/>
<rect width="24" height="24" fill="white"/>
<circle cx="12" cy="12" r="2" fill="#F06619"/>
<path d="M15 8C17.6667 10.2091 17.6667 13.7909 15 16" stroke="#F06619" stroke-width="1.7" stroke-linecap="round" stroke-linejoin="round"/>
<path d="M9 8C6.33333 10.2091 6.33333 13.7909 9 16" stroke="#F06619" stroke-width="1.7" stroke-linecap="round" stroke-linejoin="round"/>
<path d="M18 5C22 8.86599 22 15.134 18 19" stroke="#F06619" stroke-width="1.7" stroke-linecap="round" stroke-linejoin="round"/>
<path d="M6 5C2 8.86599 2 15.134 6 19" stroke="#F06619" stroke-width="1.7" stroke-linecap="round" stroke-linejoin="round"/>
</g>
<defs>
<clipPath id="clip0_542_46540">
<rect width="24" height="22" fill="white"/>
</clipPath>
</defs>
</svg>
