<svg width="24" height="24" viewBox="0 0 24 24" fill="none" xmlns="http://www.w3.org/2000/svg">
<path d="M17.9576 6.3529C16.8145 6.37341 15.7132 6.79478 14.8388 7.54616C13.9644 8.29753 13.3703 9.33308 13.1565 10.4787C12.083 8.77688 11.2422 6.93366 10.6572 5H8.17987V11.7086C8.17987 12.3432 7.93273 12.9518 7.4928 13.4005C7.05288 13.8492 6.45622 14.1013 5.83408 14.1013C5.21194 14.1013 4.61528 13.8492 4.17536 13.4005C3.73544 12.9518 3.48829 12.3432 3.48829 11.7086V5L1 5.0559V11.7645C1.00727 13.0693 1.52239 14.3177 2.43204 15.235C3.34169 16.1524 4.57135 16.6636 5.85052 16.6562C7.12969 16.6488 8.35359 16.1233 9.25296 15.1955C10.1523 14.2676 10.6535 13.0134 10.6462 11.7086V10.5905C11.1722 11.6427 11.7768 12.652 12.4549 13.6094L10.9422 21H13.4853L14.5815 15.6219C15.5974 16.2879 16.783 16.634 17.9905 16.6171C19.3191 16.6171 20.5933 16.0787 21.5328 15.1205C22.4722 14.1622 23 12.8625 23 11.5073C23 10.1522 22.4722 8.85248 21.5328 7.89422C20.5933 6.93597 19.3191 6.39762 17.9905 6.39762L17.9576 6.3529ZM17.9576 13.9895C16.9276 13.9556 15.9405 13.5607 15.1624 12.8714L15.4145 11.8539V11.798C15.5899 10.6799 16.138 8.89099 17.9905 8.89099C18.3153 8.88804 18.6375 8.95056 18.9386 9.07497C19.2396 9.19938 19.5136 9.38321 19.7448 9.61593C19.976 9.84865 20.1599 10.1257 20.2859 10.431C20.4118 10.7364 20.4774 11.0642 20.4788 11.3955C20.4553 12.0664 20.1872 12.7041 19.727 13.1839C19.2668 13.6637 18.6475 13.951 17.9905 13.9895H17.9576Z" fill="#49AB5E"/>
</svg>
