<svg width="24" height="24" viewBox="0 0 24 24" fill="none" xmlns="http://www.w3.org/2000/svg">
<path d="M12.0019 2.18164C6.58009 2.18164 2.18359 6.68857 2.18359 12.2484C2.18359 16.6961 4.99682 20.4696 8.89792 21.8007C9.38861 21.8939 9.56875 21.5823 9.56875 21.3164C9.56875 21.0764 9.55965 20.2834 9.55542 19.4422C6.82397 20.0512 6.2476 18.2545 6.2476 18.2545C5.80098 17.0909 5.15746 16.7815 5.15746 16.7815C4.26665 16.1567 5.22461 16.1695 5.22461 16.1695C6.21053 16.2406 6.72967 17.2069 6.72967 17.2069C7.60536 18.7459 9.02653 18.301 9.5868 18.0438C9.67492 17.3931 9.92937 16.949 10.2102 16.6976C8.02939 16.4431 5.73692 15.5799 5.73692 11.7226C5.73692 10.6236 6.12046 9.72554 6.74853 9.02056C6.64659 8.767 6.31052 7.74313 6.84364 6.3565C6.84364 6.3565 7.66812 6.08595 9.54436 7.38839C10.3275 7.16534 11.1675 7.05348 12.0019 7.04965C12.8362 7.05348 13.6768 7.16534 14.4615 7.38839C16.3354 6.08595 17.1588 6.3565 17.1588 6.3565C17.6932 7.74313 17.357 8.767 17.255 9.02056C17.8846 9.72554 18.2655 10.6236 18.2655 11.7226C18.2655 15.5891 15.9686 16.4404 13.7823 16.6896C14.1345 17.002 14.4483 17.6147 14.4483 18.5539C14.4483 19.9008 14.4369 20.9849 14.4369 21.3164C14.4369 21.5843 14.6136 21.8982 15.1113 21.7994C19.0103 20.4668 21.82 16.6946 21.82 12.2484C21.82 6.68857 17.4241 2.18164 12.0019 2.18164Z" fill="#161514"/>
<path d="M5.93043 16.5665C5.90884 16.616 5.83224 16.6308 5.76246 16.5968C5.69138 16.5643 5.65146 16.4968 5.6745 16.4471C5.6956 16.3961 5.77236 16.3819 5.84328 16.4161C5.91452 16.4486 5.95509 16.5168 5.93043 16.5665Z" fill="#161514"/>
<path d="M6.32737 17.0168C6.28063 17.0608 6.18927 17.0404 6.12728 16.9707C6.06317 16.9012 6.05117 16.8083 6.09855 16.7636C6.14675 16.7195 6.23536 16.7401 6.29962 16.8096C6.36372 16.8799 6.37622 16.9722 6.32737 17.0168Z" fill="#161514"/>
<path d="M6.71377 17.5908C6.65373 17.6332 6.55554 17.5935 6.49485 17.5048C6.4348 17.4162 6.4348 17.3099 6.49615 17.2673C6.557 17.2247 6.65373 17.263 6.71523 17.351C6.77511 17.4411 6.77511 17.5474 6.71377 17.5908Z" fill="#161514"/>
<path d="M7.24314 18.1454C7.18942 18.2057 7.07501 18.1895 6.99128 18.1073C6.90559 18.0269 6.88173 17.9128 6.93561 17.8526C6.98998 17.7922 7.10504 17.8092 7.18943 17.8907C7.27446 17.9709 7.30043 18.0858 7.24314 18.1454Z" fill="#161514"/>
<path d="M7.97342 18.4674C7.94973 18.5455 7.83953 18.581 7.72853 18.5478C7.61769 18.5137 7.54515 18.4222 7.56755 18.3433C7.59059 18.2648 7.70127 18.2278 7.81308 18.2633C7.92376 18.2973 7.99646 18.388 7.97342 18.4674Z" fill="#161514"/>
<path d="M8.77543 18.5272C8.77818 18.6094 8.68406 18.6776 8.56754 18.679C8.45037 18.6817 8.3556 18.6152 8.3543 18.5343C8.3543 18.4513 8.44631 18.3838 8.56348 18.3818C8.68 18.3795 8.77543 18.4455 8.77543 18.5272Z" fill="#161514"/>
<path d="M9.52177 18.398C9.53573 18.4782 9.45475 18.5605 9.33904 18.5825C9.22528 18.6036 9.11996 18.5541 9.10551 18.4745C9.09139 18.3923 9.17383 18.31 9.28743 18.2887C9.4033 18.2682 9.507 18.3164 9.52177 18.398Z" fill="#161514"/>
</svg>
