<svg width="51" height="42" viewBox="0 0 51 42" fill="none" xmlns="http://www.w3.org/2000/svg">
<mask id="path-1-outside-1_439_70031" maskUnits="userSpaceOnUse" x="0" y="0" width="51" height="42" fill="black">
<rect fill="white" width="51" height="42"/>
<path d="M1 0H44C47.866 0 51 3.13401 51 7V35C51 38.866 47.866 42 44 42H1V0Z"/>
</mask>
<path d="M1 0H44C47.866 0 51 3.13401 51 7V35C51 38.866 47.866 42 44 42H1V0Z" fill="#F3F4F6"/>
<path d="M22.2657 19.6231C21.8752 19.2326 21.8752 18.5994 22.2657 18.2089L23.2085 17.2661C23.599 16.8756 24.2322 16.8756 24.6227 17.2661L32.9102 25.5536C33.3008 25.9441 33.3008 26.5773 32.9102 26.9678L31.9674 27.9106C31.5769 28.3012 30.9437 28.3012 30.5532 27.9106L22.2657 19.6231Z" stroke="#89888E" stroke-width="1.5" stroke-linejoin="round"/>
<path d="M25.9987 19.334L24.332 21.0007" stroke="#89888E" stroke-width="1.5" stroke-linecap="round" stroke-linejoin="round"/>
<path d="M20.168 15.166L18.918 13.916" stroke="#89888E" stroke-width="1.5" stroke-linecap="round" stroke-linejoin="round"/>
<path d="M20.168 21.834L18.918 23.084" stroke="#89888E" stroke-width="1.5" stroke-linecap="round" stroke-linejoin="round"/>
<path d="M26.832 15.166L28.082 13.916" stroke="#89888E" stroke-width="1.5" stroke-linecap="round" stroke-linejoin="round"/>
<path d="M23.5 14.3333V13.5" stroke="#89888E" stroke-width="1.5" stroke-linecap="round" stroke-linejoin="round"/>
<path d="M18.5 18.5H19.3333" stroke="#89888E" stroke-width="1.5" stroke-linecap="round" stroke-linejoin="round"/>
<path d="M1 0H51H1ZM51 42H1H51ZM0 42V0H2V42H0ZM51 0V42V0Z" fill="#EDEDED" mask="url(#path-1-outside-1_439_70031)"/>
</svg>
