<svg width="20" height="20" viewBox="0 0 20 20" fill="none" xmlns="http://www.w3.org/2000/svg">
<path fill-rule="evenodd" clip-rule="evenodd" d="M4.16602 2.5C2.7853 2.5 1.66602 3.61929 1.66602 5V11.6667C1.66602 12.1269 2.03911 12.5 2.49935 12.5C2.95959 12.5 3.33268 12.1269 3.33268 11.6667V5C3.33268 4.53976 3.70578 4.16667 4.16602 4.16667H15.8327C16.2929 4.16667 16.666 4.53976 16.666 5V15C16.666 15.4602 16.2929 15.8333 15.8327 15.8333H7.49935C7.03911 15.8333 6.66602 16.2064 6.66602 16.6667C6.66602 17.1269 7.03911 17.5 7.49935 17.5H15.8327C17.2134 17.5 18.3327 16.3807 18.3327 15V5C18.3327 3.61929 17.2134 2.5 15.8327 2.5H4.16602ZM5.39974 5.20898C4.9395 5.20898 4.56641 5.58208 4.56641 6.04232C4.56641 6.50255 4.9395 6.87565 5.39974 6.87565H6.11717C6.5774 6.87565 6.9505 6.50255 6.9505 6.04232C6.9505 5.58208 6.5774 5.20898 6.11717 5.20898H5.39974ZM9.03258 5.20898C8.57234 5.20898 8.19925 5.58208 8.19925 6.04232C8.19925 6.50255 8.57234 6.87565 9.03258 6.87565H14.6907C15.1509 6.87565 15.524 6.50255 15.524 6.04232C15.524 5.58208 15.1509 5.20898 14.6907 5.20898H9.03258ZM9.93612 9.68069C9.97686 9.77894 9.99935 9.88668 9.99935 9.99967V12.9163C9.99935 13.2534 9.79631 13.5573 9.48492 13.6862C9.17352 13.8152 8.81509 13.7439 8.57676 13.5056L7.70768 12.6365L3.0886 17.2556C2.76317 17.581 2.23553 17.581 1.91009 17.2556C1.58466 16.9302 1.58466 16.4025 1.91009 16.0771L6.52917 11.458L5.66009 10.5889C5.42176 10.3506 5.35047 9.99217 5.47945 9.68077C5.60843 9.36938 5.9123 9.16634 6.24935 9.16634H9.16523C9.16806 9.16634 9.17088 9.16635 9.17371 9.16638C9.17115 9.16635 9.16858 9.16634 9.16602 9.16634" fill="#AEAEAE"/>
</svg>
