<svg width="32" height="32" viewBox="0 0 32 32" fill="none" xmlns="http://www.w3.org/2000/svg">
<rect width="32" height="32" rx="4" fill="#EDEDED"/>
<path fill-rule="evenodd" clip-rule="evenodd" d="M12.625 13.8125C14.1783 13.8125 15.4375 12.5533 15.4375 11C15.4375 9.4467 14.1783 8.1875 12.625 8.1875C11.0717 8.1875 9.8125 9.4467 9.8125 11C9.8125 12.5533 11.0717 13.8125 12.625 13.8125ZM17.2857 19.1964C17.5209 18.8829 17.7154 18.5439 17.8667 18.1875H14.5536C14.1098 18.1875 13.75 18.5473 13.75 18.9911C13.75 19.7109 13.9111 20.4173 14.2166 21.0602C15.4315 20.859 16.5349 20.1976 17.2857 19.1964ZM16.277 16.6875C15.9426 16.3423 15.6655 15.9414 15.4607 15.5H7.80357C7.35977 15.5 7 15.8598 7 16.3036C7 17.3468 7.33836 18.3619 7.96429 19.1964C8.87483 20.4105 10.3038 21.125 11.8214 21.125H12.6211C12.3771 20.4447 12.25 19.7232 12.25 18.9911C12.25 17.7188 13.2813 16.6875 14.5536 16.6875H16.277ZM17.4464 15.5H17.2243C17.5009 15.8278 17.8509 16.0915 18.2491 16.2656C18.2293 15.8394 17.8775 15.5 17.4464 15.5Z" fill="#AEAEAE"/>
<path fill-rule="evenodd" clip-rule="evenodd" d="M19.375 16.5C20.9283 16.5 22.1875 15.2408 22.1875 13.6875C22.1875 12.1342 20.9283 10.875 19.375 10.875C17.8217 10.875 16.5625 12.1342 16.5625 13.6875C16.5625 15.2408 17.8217 16.5 19.375 16.5ZM18.5714 23.8125C17.0538 23.8125 15.6248 23.098 14.7143 21.8839C14.0884 21.0494 13.75 20.0343 13.75 18.9911C13.75 18.5473 14.1098 18.1875 14.5536 18.1875H24.1964C24.6402 18.1875 25 18.5473 25 18.9911C25 20.0343 24.6616 21.0494 24.0357 21.8839C23.1252 23.098 21.6962 23.8125 20.1786 23.8125H18.5714Z" fill="#AEAEAE"/>
</svg>
