<svg width="16" height="16" viewBox="0 0 16 16" fill="none" xmlns="http://www.w3.org/2000/svg">
<path d="M6.53717 5.46521C6.80281 4.98634 6.74981 4.39361 6.40343 3.96963L4.99458 2.24513C4.74457 1.9391 4.28538 1.91617 4.0062 2.19576L2.62239 3.58163C1.60569 4.60144 1.99982 6.08742 2.63372 7.38623C4.05371 10.2957 5.99915 12.2379 8.62164 13.3832C9.94336 13.9604 11.404 14.4144 12.4207 13.3946L13.8045 12.0087C14.0837 11.7291 14.0608 11.2692 13.7552 11.0189L12.0333 9.6079C11.61 9.261 11.0181 9.20792 10.54 9.47396L8.88244 10.3962C7.3011 9.29165 6.74193 8.74142 5.61633 7.12519L6.53717 5.46521Z" stroke="#89888E" stroke-width="1.5" stroke-linejoin="round"/>
</svg>
