<svg width="20" height="20" viewBox="0 0 20 20" fill="none" xmlns="http://www.w3.org/2000/svg">
<path d="M14.0837 5.5L13.2269 3.29694C13.0401 2.81648 12.5774 2.5 12.0619 2.5H7.93874C7.42323 2.5 6.96058 2.81648 6.77374 3.29694L5.91699 5.5" stroke="white" stroke-width="1.5" stroke-linejoin="round"/>
<path d="M15.625 5.42578H4.375C3.33947 5.42578 2.5 6.26525 2.5 7.30078V15.5744C2.5 16.6099 3.33947 17.4494 4.375 17.4494H15.625C16.6605 17.4494 17.5 16.6099 17.5 15.5744V7.30078C17.5 6.26525 16.6605 5.42578 15.625 5.42578Z" stroke="white" stroke-width="1.5" stroke-linecap="round"/>
<path d="M17.5 12.1953C15.4456 13.2932 12.8378 13.9499 10 13.9499C7.16216 13.9499 4.5544 13.2932 2.5 12.1953" stroke="white" stroke-width="1.5" stroke-linecap="round"/>
<circle cx="9.9998" cy="10.5984" r="1.2" fill="white"/>
</svg>
