<svg width="16" height="16" viewBox="0 0 16 16" fill="none" xmlns="http://www.w3.org/2000/svg">
<path fill-rule="evenodd" clip-rule="evenodd" d="M7.88991 1.17969C6.64786 1.17969 5.57245 2.04235 5.30301 3.25482C5.29683 3.28264 5.26691 3.30115 5.23743 3.29187C4.05267 2.91897 2.76788 3.41897 2.14686 4.49462L2.03677 4.6853L2.59968 5.0103L2.03677 4.6853C1.41574 5.76095 1.62512 7.12361 2.54044 7.96319C2.56304 7.98392 2.56292 8.01947 2.54051 8.04003C1.6252 8.87961 1.41582 10.2423 2.03684 11.3179L2.14693 11.5086C2.76796 12.5842 4.05275 13.0842 5.2375 12.7113C5.26683 12.7021 5.29678 12.7204 5.30301 12.7485C5.57245 13.961 6.64786 14.8236 7.88991 14.8236H8.11009C9.35214 14.8236 10.4275 13.961 10.697 12.7485C10.7037 12.7182 10.7349 12.7014 10.7622 12.71C11.9469 13.0829 13.2317 12.5829 13.8528 11.5073L13.9629 11.3166C14.5839 10.2409 14.3745 8.87828 13.4592 8.0387C13.4375 8.01886 13.4374 7.98453 13.4593 7.96452C14.3746 7.12494 14.584 5.76228 13.9629 4.68663L13.8528 4.49595C13.2318 3.4203 11.947 2.9203 10.7623 3.2932C10.7347 3.30187 10.7037 3.285 10.697 3.25482C10.4275 2.04235 9.35214 1.17969 8.11009 1.17969H7.88991ZM6.57206 3.53683C6.70932 2.91916 7.25716 2.47969 7.88991 2.47969H8.11009C8.74284 2.47969 9.29068 2.91916 9.42794 3.53683C9.59955 4.30906 10.3961 4.77133 11.1526 4.53323C11.7561 4.34326 12.4106 4.59798 12.727 5.14595L12.8371 5.33663C13.1535 5.8846 13.0468 6.57879 12.5805 7.0065C11.9972 7.54153 11.9969 8.46151 12.5804 8.99672C13.0467 9.42443 13.1534 10.1186 12.837 10.6666L12.7269 10.8573C12.4106 11.4052 11.756 11.66 11.1525 11.47C10.3959 11.2318 9.5995 11.6945 9.42794 12.4665C9.29068 13.0842 8.74284 13.5236 8.11009 13.5236H7.88991C7.25716 13.5236 6.70932 13.0842 6.57206 12.4665C6.40005 11.6924 5.60162 11.2339 4.84721 11.4713C4.24365 11.6613 3.58914 11.4066 3.27277 10.8586L3.16267 10.6679C2.8463 10.1199 2.95297 9.42576 3.41926 8.99805C4.00353 8.46212 4.00327 7.54092 3.41919 7.00517C2.95289 6.57746 2.84623 5.88327 3.1626 5.3353L3.27269 5.14462C3.58906 4.59665 4.24358 4.34193 4.84713 4.5319C5.60132 4.76927 6.40001 4.31102 6.57206 3.53683ZM6.64866 8.00133C6.64866 7.25479 7.25384 6.64961 8.00037 6.64961C8.74691 6.64961 9.35209 7.25479 9.35209 8.00133C9.35209 8.74786 8.74691 9.35305 8.00037 9.35305C7.25384 9.35305 6.64866 8.74786 6.64866 8.00133ZM8.00037 5.34961C6.53587 5.34961 5.34866 6.53682 5.34866 8.00133C5.34866 9.46583 6.53587 10.653 8.00037 10.653C9.46488 10.653 10.6521 9.46583 10.6521 8.00133C10.6521 6.53682 9.46488 5.34961 8.00037 5.34961Z" fill="white"/>
</svg>